<svg xmlns="http://www.w3.org/2000/svg" width="512" height="512" viewBox="0 0 512 512">
<g>
<path d="M 119.36,494.02 L 116.76,493.34 L 111.85,491.59 L 109.44,490.65 L 104.92,488.39 L 102.71,487.20 L 98.58,484.43 L 96.57,482.98 L 92.83,479.70 L 91.01,477.99 L 87.66,474.20 L 86.03,472.23 L 83.07,467.92 L 81.64,465.70 L 79.06,460.87 L 75.63,453.05 L 75.37,452.36 L 74.94,451.02 L 74.73,450.29 L 74.41,448.32 L 74.33,447.76 L 74.20,446.39 L 74.14,445.66 L 74.02,443.89 L 73.97,442.95 L 73.87,440.69 L 73.83,439.49 L 73.75,436.65 L 73.71,435.15 L 73.64,431.64 L 73.61,429.79 L 73.56,425.52 L 73.53,423.28 L 73.48,418.16 L 73.46,415.48 L 73.42,409.43 L 73.40,406.27 L 73.37,399.18 L 73.36,397.34 L 73.35,393.45 L 73.34,391.47 L 73.32,387.30 L 73.31,385.17 L 73.30,380.70 L 73.29,378.42 L 73.27,373.63 L 73.27,371.20 L 73.25,366.09 L 73.22,358.06 L 72.94,268.62 L 49.67,291.81 L 48.48,293.00 L 46.26,295.20 L 45.18,296.27 L 43.18,298.25 L 42.20,299.22 L 40.39,301.00 L 39.51,301.86 L 37.89,303.44 L 36.31,304.97 L 33.66,307.49 L 32.42,308.66 L 30.37,310.52 L 29.40,311.38 L 27.85,312.67 L 27.13,313.25 L 25.99,314.05 L 25.46,314.39 L 24.64,314.78 L 23.66,315.00 L 22.70,315.00 L 20.85,314.30 L 19.95,313.86 L 18.39,312.46 L 17.68,311.69 L 16.66,309.85 L 16.00,306.87 L 16.00,306.51 L 16.18,305.72 L 16.32,305.30 L 16.89,304.25 L 17.23,303.69 L 18.34,302.22 L 18.98,301.42 L 20.80,299.35 L 21.30,298.79 L 22.47,297.52 L 23.08,296.86 L 24.48,295.38 L 25.21,294.61 L 26.85,292.90 L 27.71,292.01 L 29.62,290.05 L 30.62,289.03 L 32.82,286.79 L 33.96,285.63 L 36.47,283.09 L 37.76,281.78 L 40.60,278.92 L 45.25,274.24 L 47.26,272.22 L 51.18,268.31 L 53.12,266.38 L 56.82,262.71 L 58.64,260.92 L 62.04,257.59 L 63.70,255.97 L 66.71,253.06 L 68.16,251.66 L 70.70,249.24 L 71.90,248.11 L 73.87,246.28 L 74.78,245.45 L 76.09,244.29 L 76.38,244.05 L 76.81,243.70 L 77.24,243.40 L 78.00,243.00 L 79.86,242.55 L 82.31,242.54 L 82.39,242.56 L 82.71,242.76 L 82.89,242.88 L 83.40,243.28 L 83.95,243.72 L 85.61,245.16 L 86.52,245.97 L 88.81,248.07 L 90.03,249.20 L 92.87,251.87 L 94.35,253.27 L 97.65,256.44 L 99.35,258.08 L 103.02,261.65 L 104.89,263.48 L 108.84,267.38 L 114.99,273.49 L 116.69,275.19 L 119.82,278.33 L 121.34,279.85 L 124.12,282.65 L 125.47,284.00 L 127.92,286.47 L 129.10,287.67 L 131.24,289.84 L 132.27,290.89 L 134.12,292.79 L 135.00,293.70 L 136.58,295.35 L 137.34,296.14 L 138.66,297.55 L 139.30,298.23 L 140.39,299.43 L 141.44,300.59 L 142.93,302.37 L 143.59,303.19 L 144.43,304.44 L 144.79,305.02 L 145.15,305.92 L 145.33,307.08 L 145.33,307.66 L 145.18,308.70 L 145.07,309.20 L 144.68,310.13 L 144.45,310.59 L 143.80,311.46 L 142.50,312.75 L 141.85,313.31 L 140.67,314.14 L 140.07,314.49 L 138.85,314.79 L 138.22,314.87 L 136.75,314.50 L 135.97,314.22 L 134.04,313.04 L 133.52,312.69 L 132.35,311.80 L 131.75,311.33 L 130.40,310.20 L 129.69,309.60 L 128.13,308.19 L 127.32,307.45 L 125.51,305.76 L 124.57,304.87 L 122.50,302.87 L 121.42,301.83 L 119.06,299.51 L 117.83,298.30 L 115.14,295.64 L 110.72,291.23 L 87.94,268.50 L 88.24,356.00 L 88.24,358.72 L 88.26,363.92 L 88.27,366.47 L 88.29,371.34 L 88.30,373.74 L 88.31,378.29 L 88.32,380.53 L 88.34,384.79 L 88.35,386.88 L 88.36,390.84 L 88.37,392.79 L 88.39,396.47 L 88.40,400.08 L 88.44,406.52 L 88.46,409.62 L 88.50,415.08 L 88.53,417.70 L 88.58,422.28 L 88.60,424.47 L 88.66,428.26 L 88.70,430.06 L 88.77,433.15 L 88.81,434.61 L 88.90,437.09 L 88.95,438.25 L 89.05,440.20 L 89.11,441.12 L 89.23,442.63 L 89.30,443.34 L 89.45,444.52 L 89.61,445.62 L 89.99,447.17 L 90.71,449.25 L 91.53,451.40 L 93.50,455.41 L 94.54,457.37 L 96.95,460.98 L 98.20,462.73 L 101.01,465.91 L 102.46,467.45 L 105.64,470.19 L 107.28,471.50 L 110.81,473.77 L 112.62,474.84 L 116.46,476.61 L 118.42,477.44 L 122.56,478.69 L 129.05,479.97 L 129.57,480.04 L 131.12,480.17 L 131.97,480.23 L 134.14,480.35 L 135.28,480.41 L 137.97,480.52 L 139.36,480.57 L 142.46,480.66 L 144.06,480.71 L 147.49,480.79 L 149.23,480.82 L 152.89,480.88 L 164.25,480.97 L 165.90,480.97 L 168.91,480.98 L 170.37,480.98 L 173.03,480.99 L 174.31,480.99 L 176.63,481.00 L 177.75,481.01 L 179.77,481.03 L 180.74,481.04 L 182.46,481.07 L 183.29,481.09 L 184.76,481.12 L 186.17,481.16 L 188.31,481.28 L 189.28,481.35 L 190.71,481.53 L 191.35,481.63 L 192.26,481.88 L 194.00,483.00 L 194.69,483.69 L 195.53,485.39 L 195.85,486.28 L 195.95,488.18 L 195.91,489.13 L 195.29,491.01 L 193.55,493.55 L 191.09,496.00 L 158.80,495.94 L 157.03,495.94 L 153.77,495.93 L 152.18,495.93 L 149.25,495.92 L 147.83,495.91 L 145.21,495.89 L 143.94,495.88 L 141.60,495.85 L 139.34,495.83 L 135.56,495.75 L 133.78,495.70 L 130.83,495.58 L 129.44,495.51 L 127.14,495.33 L 126.05,495.24 L 124.19,495.00 L 122.40,494.75 M 232.93,494.63 L 231.69,494.30 L 229.29,493.43 L 228.11,492.96 L 225.83,491.84 L 224.70,491.24 L 222.55,489.87 L 221.49,489.15 L 219.48,487.55 L 218.50,486.72 L 216.65,484.90 L 215.75,483.96 L 214.08,481.93 L 213.27,480.89 L 211.79,478.67 L 209.81,475.14 L 207.50,470.50 L 207.22,405.59 L 206.94,340.69 L 209.15,338.34 L 211.35,336.00 L 273.07,336.00 L 334.78,336.00 L 347.62,312.37 L 349.39,309.12 L 352.78,303.09 L 353.60,301.64 L 355.16,298.94 L 355.92,297.63 L 357.32,295.27 L 358.00,294.13 L 359.22,292.17 L 359.79,291.24 L 360.77,289.74 L 361.22,289.06 L 361.93,288.10 L 362.62,287.33 L 362.85,287.18 L 363.68,286.93 L 364.18,286.81 L 365.72,286.62 L 366.60,286.53 L 369.07,286.39 L 369.75,286.36 L 371.33,286.30 L 372.16,286.28 L 374.04,286.23 L 375.02,286.21 L 377.24,286.18 L 378.39,286.17 L 380.96,286.14 L 382.30,286.13 L 385.26,286.12 L 386.79,286.12 L 390.16,286.11 L 391.89,286.11 L 395.70,286.12 L 397.67,286.12 L 401.94,286.14 L 404.14,286.15 L 408.91,286.17 L 416.64,286.21 L 468.50,286.50 L 474.61,289.32 L 476.52,290.21 L 480.15,292.56 L 481.92,293.82 L 485.16,296.81 L 486.71,298.37 L 489.41,301.86 L 492.70,307.50 L 495.50,313.50 L 495.77,389.08 L 495.79,393.60 L 495.82,401.84 L 495.83,405.84 L 495.85,413.10 L 495.86,416.61 L 495.88,422.95 L 495.88,426.02 L 495.89,431.51 L 495.89,434.16 L 495.88,438.87 L 495.87,441.14 L 495.85,445.15 L 495.84,447.07 L 495.81,450.44 L 495.79,452.05 L 495.74,454.85 L 495.71,456.18 L 495.64,458.48 L 495.61,459.57 L 495.52,461.43 L 495.48,462.32 L 495.37,463.82 L 495.32,464.54 L 495.19,465.75 L 495.06,466.89 L 494.73,468.61 L 494.12,470.86 L 493.69,472.25 L 492.59,474.90 L 492.00,476.21 L 490.59,478.68 L 489.86,479.90 L 488.18,482.18 L 487.31,483.29 L 485.37,485.35 L 484.38,486.35 L 482.21,488.16 L 481.10,489.03 L 478.73,490.58 L 477.52,491.31 L 474.96,492.57 L 470.94,494.10 L 470.20,494.32 L 468.58,494.70 L 468.12,494.79 L 467.05,494.95 L 466.47,495.03 L 465.08,495.16 L 464.33,495.23 L 462.52,495.34 L 461.55,495.40 L 459.21,495.50 L 457.97,495.54 L 455.00,495.62 L 453.43,495.66 L 449.74,495.72 L 447.79,495.75 L 443.26,495.80 L 440.89,495.83 L 435.43,495.86 L 434.00,495.87 L 430.95,495.88 L 429.39,495.89 L 426.07,495.90 L 424.38,495.91 L 420.78,495.92 L 418.94,495.92 L 415.05,495.93 L 413.06,495.93 L 408.86,495.94 L 406.72,495.94 L 402.20,495.94 L 399.90,495.94 L 395.04,495.95 L 392.57,495.95 L 387.37,495.95 L 384.73,495.95 L 379.17,495.95 L 376.34,495.94 L 370.41,495.94 L 367.40,495.94 L 361.08,495.94 L 351.16,495.93 L 345.74,495.93 L 335.58,495.92 L 330.61,495.91 L 321.32,495.90 L 316.78,495.89 L 308.34,495.87 L 304.22,495.86 L 296.58,495.84 L 292.86,495.83 L 286.00,495.80 L 282.67,495.78 L 276.55,495.75 L 273.58,495.73 L 268.18,495.69 L 265.56,495.66 L 260.82,495.62 L 258.54,495.59 L 254.45,495.54 L 252.48,495.51 L 249.00,495.44 L 247.33,495.41 L 244.43,495.34 L 243.04,495.30 L 240.68,495.23 L 239.56,495.18 L 237.70,495.10 L 236.83,495.05 L 235.45,494.96 L 234.82,494.91 L 233.88,494.80 L 233.46,494.75 M 398.21,241.75 L 396.19,239.74 L 392.27,235.81 L 390.34,233.87 L 386.67,230.14 L 384.88,228.31 L 381.55,224.88 L 379.93,223.21 L 377.02,220.15 L 375.62,218.68 L 373.21,216.10 L 372.08,214.88 L 370.26,212.85 L 369.43,211.92 L 368.28,210.54 L 368.03,210.25 L 367.69,209.78 L 367.40,209.31 L 367.11,208.63 L 366.77,207.31 L 366.64,206.65 L 366.62,205.41 L 366.64,204.80 L 366.91,203.66 L 367.08,203.11 L 367.61,202.12 L 367.91,201.64 L 368.70,200.83 L 369.12,200.45 L 370.13,199.85 L 370.66,199.58 L 371.88,199.22 L 373.91,199.00 L 374.33,199.00 L 375.14,199.11 L 375.55,199.19 L 376.46,199.56 L 376.94,199.79 L 378.11,200.58 L 378.74,201.04 L 380.35,202.37 L 381.21,203.12 L 383.41,205.15 L 384.00,205.70 L 385.32,206.97 L 386.01,207.63 L 387.54,209.12 L 388.33,209.89 L 390.08,211.62 L 390.99,212.52 L 392.99,214.50 L 394.02,215.53 L 396.28,217.78 L 400.00,221.50 L 401.55,223.05 L 404.53,226.02 L 406.00,227.48 L 408.79,230.24 L 410.16,231.58 L 412.69,234.06 L 413.91,235.25 L 416.11,237.39 L 417.17,238.41 L 418.98,240.14 L 419.84,240.95 L 421.20,242.22 L 421.82,242.80 L 422.66,243.54 L 423.28,244.00 L 423.31,244.00 L 423.36,243.54 L 423.39,243.24 L 423.44,242.21 L 423.46,241.62 L 423.51,240.04 L 423.53,239.18 L 423.57,237.08 L 423.59,235.96 L 423.63,233.37 L 423.64,232.01 L 423.68,228.96 L 423.69,227.38 L 423.72,223.90 L 423.73,222.11 L 423.76,218.22 L 423.77,216.24 L 423.79,211.98 L 423.80,209.81 L 423.81,205.22 L 423.82,202.89 L 423.82,197.99 L 423.83,195.50 L 423.83,190.32 L 423.83,185.08 L 423.82,173.88 L 423.78,156.25 L 423.77,153.53 L 423.75,148.35 L 423.74,145.80 L 423.72,140.93 L 423.71,138.54 L 423.70,133.99 L 423.69,131.75 L 423.67,127.50 L 423.66,125.41 L 423.64,121.45 L 423.64,119.51 L 423.62,115.82 L 423.60,112.21 L 423.56,105.76 L 423.54,102.66 L 423.50,97.19 L 423.48,94.56 L 423.43,89.96 L 423.40,87.77 L 423.34,83.96 L 423.31,82.15 L 423.23,79.04 L 423.19,77.57 L 423.11,75.08 L 423.06,73.90 L 422.95,71.94 L 422.90,71.01 L 422.77,69.48 L 422.71,68.76 L 422.56,67.58 L 422.41,66.46 L 422.03,64.90 L 421.32,62.85 L 420.63,61.04 L 419.07,57.66 L 418.26,56.01 L 416.44,52.94 L 415.50,51.44 L 413.41,48.68 L 412.34,47.33 L 409.98,44.86 L 408.77,43.66 L 406.13,41.48 L 404.78,40.42 L 401.85,38.52 L 400.35,37.61 L 397.12,35.97 L 391.95,33.83 L 385.50,31.50 L 282.29,31.21 L 179.08,30.92 L 177.04,28.33 L 176.36,27.46 L 175.54,25.75 L 175.22,24.89 L 175.11,23.21 L 175.14,22.38 L 175.75,20.77 L 177.45,18.45 L 179.91,16.00 L 282.29,16.00 L 285.36,16.00 L 291.21,16.00 L 294.09,16.00 L 299.59,16.00 L 302.30,16.00 L 307.47,16.00 L 310.01,16.00 L 314.85,16.01 L 317.23,16.01 L 321.75,16.01 L 323.97,16.01 L 328.20,16.02 L 330.27,16.02 L 334.20,16.03 L 336.13,16.03 L 339.78,16.04 L 343.37,16.05 L 349.74,16.08 L 352.81,16.09 L 358.22,16.12 L 360.82,16.14 L 365.36,16.19 L 367.53,16.21 L 371.29,16.27 L 373.08,16.30 L 376.16,16.38 L 377.62,16.42 L 380.10,16.51 L 381.28,16.56 L 383.27,16.67 L 384.21,16.72 L 385.79,16.85 L 386.54,16.92 L 387.80,17.07 L 388.41,17.15 L 389.46,17.32 L 392.24,17.93 L 394.89,18.61 L 399.86,20.34 L 402.30,21.27 L 406.87,23.52 L 409.10,24.70 L 413.26,27.46 L 415.30,28.90 L 419.06,32.18 L 420.89,33.89 L 424.26,37.69 L 425.90,39.65 L 428.88,43.98 L 430.32,46.21 L 432.91,51.07 L 436.37,58.95 L 436.63,59.64 L 437.06,60.98 L 437.27,61.71 L 437.59,63.68 L 437.67,64.25 L 437.80,65.62 L 437.87,66.35 L 437.98,68.13 L 438.03,69.08 L 438.13,71.35 L 438.17,72.55 L 438.25,75.41 L 438.29,76.92 L 438.36,80.45 L 438.39,82.30 L 438.44,86.60 L 438.47,88.85 L 438.52,94.00 L 438.54,96.69 L 438.58,102.78 L 438.59,104.37 L 438.60,107.73 L 438.61,109.45 L 438.63,113.08 L 438.64,114.93 L 438.65,118.84 L 438.66,120.83 L 438.68,125.03 L 438.69,127.17 L 438.70,131.67 L 438.71,133.96 L 438.73,138.78 L 438.73,141.22 L 438.75,146.36 L 438.78,154.44 L 439.06,244.38 L 461.83,221.69 L 463.16,220.36 L 465.60,217.94 L 466.78,216.76 L 468.94,214.62 L 469.99,213.58 L 471.89,211.71 L 472.81,210.81 L 474.47,209.19 L 475.27,208.41 L 476.71,207.02 L 477.41,206.35 L 478.65,205.18 L 479.85,204.06 L 481.75,202.38 L 482.62,201.63 L 484.00,200.58 L 484.64,200.12 L 485.67,199.56 L 486.15,199.33 L 486.99,199.10 L 488.23,199.00 L 488.91,199.00 L 490.05,199.13 L 490.59,199.23 L 491.52,199.57 L 491.96,199.78 L 492.76,200.39 L 493.93,201.63 L 494.47,202.33 L 495.30,203.53 L 495.65,204.12 L 495.93,205.36 L 495.98,206.01 L 495.47,207.57 L 495.29,208.00 L 494.74,208.96 L 494.43,209.47 L 493.60,210.62 L 493.15,211.23 L 492.03,212.60 L 491.43,213.32 L 489.98,214.96 L 489.21,215.82 L 487.40,217.76 L 486.45,218.77 L 484.27,221.04 L 483.12,222.23 L 480.52,224.88 L 479.17,226.25 L 476.13,229.32 L 474.55,230.90 L 471.05,234.42 L 465.23,240.23 L 463.46,242.00 L 460.21,245.25 L 458.64,246.82 L 455.76,249.69 L 454.36,251.08 L 451.83,253.59 L 450.60,254.81 L 448.38,256.99 L 447.31,258.04 L 445.38,259.92 L 444.46,260.82 L 442.80,262.42 L 442.00,263.18 L 440.58,264.51 L 439.90,265.15 L 438.70,266.24 L 438.12,266.76 L 437.11,267.64 L 436.62,268.05 L 435.78,268.73 L 434.97,269.38 L 433.73,270.18 L 433.17,270.51 L 432.26,270.84 L 431.05,271.00 L 430.66,271.00 L 429.85,270.84 L 429.43,270.73 L 428.40,270.21 L 427.84,269.89 L 426.41,268.83 L 425.63,268.22 L 423.59,266.45 L 423.04,265.95 L 421.78,264.80 L 421.13,264.20 L 419.65,262.81 L 418.89,262.08 L 417.17,260.44 L 416.28,259.58 L 414.30,257.65 L 413.28,256.65 L 411.01,254.42 L 409.84,253.27 L 407.25,250.72 L 405.92,249.40 L 403.00,246.51 L 401.49,245.01 M 43.75,224.91 L 42.45,224.61 L 39.92,223.75 L 38.67,223.29 L 36.23,222.12 L 35.03,221.51 L 32.72,220.06 L 31.58,219.31 L 29.43,217.60 L 28.37,216.72 L 26.39,214.78 L 25.43,213.78 L 23.67,211.63 L 22.81,210.53 L 21.29,208.19 L 19.30,204.50 L 16.50,198.50 L 16.50,120.50 L 16.50,42.50 L 19.22,36.96 L 20.09,35.19 L 22.47,31.70 L 23.74,29.97 L 26.74,26.74 L 28.30,25.19 L 31.70,22.47 L 36.96,19.22 L 42.50,16.50 L 94.86,16.21 L 97.67,16.19 L 102.87,16.17 L 105.40,16.15 L 110.05,16.13 L 112.31,16.13 L 116.44,16.12 L 118.45,16.11 L 122.10,16.11 L 123.87,16.11 L 127.08,16.12 L 128.62,16.12 L 131.40,16.14 L 132.74,16.15 L 135.14,16.18 L 136.29,16.19 L 138.32,16.23 L 139.29,16.25 L 140.99,16.30 L 141.81,16.33 L 143.21,16.40 L 144.55,16.46 L 146.46,16.64 L 147.31,16.74 L 148.43,16.97 L 149.49,17.40 L 149.65,17.51 L 150.21,18.18 L 150.52,18.58 L 151.37,19.81 L 151.82,20.49 L 152.92,22.22 L 153.49,23.14 L 154.80,25.29 L 155.48,26.42 L 156.95,28.95 L 157.71,30.25 L 159.33,33.09 L 164.50,42.44 L 177.24,66.00 L 239.12,66.00 L 242.92,66.00 L 249.84,66.00 L 253.19,66.00 L 259.25,66.01 L 262.18,66.01 L 267.44,66.02 L 269.97,66.02 L 274.49,66.04 L 276.66,66.05 L 280.50,66.07 L 282.33,66.08 L 285.55,66.12 L 287.08,66.13 L 289.73,66.18 L 290.99,66.21 L 293.14,66.27 L 294.15,66.30 L 295.85,66.38 L 296.65,66.42 L 297.97,66.51 L 298.59,66.56 L 299.57,66.67 L 300.03,66.73 L 300.76,66.87 L 301.42,67.01 L 302.20,67.37 L 303.03,68.03 L 303.28,68.28 L 303.69,68.85 L 303.88,69.19 L 304.18,70.33 L 304.25,70.67 L 304.38,71.55 L 304.43,72.02 L 304.53,73.21 L 304.58,73.85 L 304.66,75.42 L 304.70,76.26 L 304.76,78.26 L 304.78,79.33 L 304.83,81.84 L 304.85,83.16 L 304.87,86.24 L 304.88,87.85 L 304.90,91.56 L 304.90,93.50 L 304.90,97.89 L 304.90,100.18 L 304.89,105.34 L 304.88,108.02 L 304.86,113.99 L 304.85,117.08 L 304.83,123.94 L 304.78,135.28 L 304.50,200.50 L 301.81,205.61 L 300.89,207.33 L 299.10,210.24 L 298.19,211.61 L 296.28,213.96 L 295.29,215.08 L 293.07,217.06 L 289.24,219.85 L 287.99,220.65 L 285.91,221.94 L 284.85,222.55 L 282.29,223.50 L 281.56,223.72 L 279.83,224.10 L 278.91,224.28 L 276.67,224.60 L 275.48,224.75 L 272.60,225.00 L 271.06,225.11 L 267.40,225.31 L 265.45,225.40 L 260.86,225.55 L 259.65,225.58 L 257.02,225.64 L 255.68,225.67 L 252.78,225.72 L 251.29,225.74 L 248.09,225.78 L 246.45,225.80 L 242.93,225.83 L 241.14,225.85 L 237.29,225.87 L 235.32,225.88 L 231.13,225.90 L 228.98,225.91 L 224.42,225.92 L 222.09,225.92 L 217.15,225.93 L 214.62,225.93 L 209.27,225.93 L 206.55,225.93 L 200.78,225.93 L 197.84,225.93 L 191.63,225.93 L 188.47,225.93 L 181.81,225.92 L 178.42,225.92 L 171.29,225.91 L 160.04,225.90 L 152.30,225.89 L 137.36,225.86 L 133.68,225.85 L 126.50,225.83 L 122.94,225.82 L 116.05,225.79 L 112.64,225.78 L 106.06,225.74 L 102.81,225.73 L 96.59,225.69 L 93.52,225.67 L 87.70,225.63 L 84.84,225.61 L 79.46,225.57 L 76.82,225.55 L 71.91,225.50 L 69.52,225.48 L 65.13,225.43 L 63.00,225.40 L 59.17,225.35 L 57.32,225.32 L 54.08,225.27 L 52.54,225.24 L 49.94,225.18 L 48.72,225.15 L 46.80,225.09 L 45.92,225.06 L 44.71,225.00 L 44.20,224.97 Z" fill="rgba(0,0,0,1)"/>
</g>
</svg>